<svg width="51" height="51" viewBox="0 0 51 51" fill="none" xmlns="http://www.w3.org/2000/svg">
<g clip-path="url(#clip0_15_255)">
<path d="M50.5 0.0625H0.5V50.0624H50.5V0.0625Z" fill="#1A1D29"/>
<path d="M34.6757 28.6109C34.0615 28.7517 32.4449 28.8327 32.4449 28.8327L32.2401 29.4725C32.2401 29.4725 33.0463 29.4043 33.6349 29.464C33.6349 29.464 33.8269 29.4427 33.8482 29.6815C33.8567 29.9033 33.8312 30.1422 33.8312 30.1422C33.8312 30.1422 33.8184 30.2872 33.6136 30.3214C33.3918 30.3597 31.8733 30.4152 31.8733 30.4152L31.6259 31.247C31.6259 31.247 31.5363 31.4389 31.7411 31.3835C31.933 31.3323 33.524 31.0337 33.733 31.0763C33.9548 31.1318 34.2022 31.4261 34.1297 31.6991C34.0444 32.0318 32.4577 33.047 31.4894 32.9745C31.4894 32.9745 30.9818 33.0086 30.551 32.3219C30.1501 31.6692 30.7046 30.428 30.7046 30.428C30.7046 30.428 30.4529 29.8479 30.6363 29.6559C30.6363 29.6559 30.7472 29.5578 31.0629 29.5322L31.451 28.7261C31.451 28.7261 31.0074 28.7559 30.743 28.4318C30.4956 28.1204 30.4785 27.9796 30.6662 27.8943C30.8667 27.7962 32.7136 27.4592 33.9847 27.5019C33.9847 27.5019 34.4283 27.4592 34.8079 28.227C34.8037 28.227 34.9914 28.5384 34.6757 28.6109ZM29.8941 31.7076C29.732 32.0915 29.3012 32.501 28.7681 32.2451C28.2391 31.9892 27.3988 30.2702 27.3988 30.2702C27.3988 30.2702 27.0789 29.6304 27.0192 29.6431C27.0192 29.6431 26.951 29.5195 26.9083 30.219C26.8657 30.9185 26.9168 32.2792 26.6396 32.4925C26.3751 32.7057 26.0552 32.6204 25.8889 32.3688C25.7396 32.1214 25.6756 31.5327 25.7566 30.5005C25.8547 29.4683 26.0936 28.3678 26.4007 28.0223C26.7078 27.681 26.9552 27.9284 27.0491 28.018C27.0491 28.018 27.4586 28.3891 28.1368 29.4811L28.2562 29.6815C28.2562 29.6815 28.8704 30.7138 28.9344 30.7095C28.9344 30.7095 28.9856 30.7564 29.0282 30.7223C29.0922 30.7052 29.0666 30.3725 29.0666 30.3725C29.0666 30.3725 28.9387 29.2507 28.3799 27.3483C28.3799 27.3483 28.2946 27.1095 28.3543 26.8877C28.4098 26.6616 28.6358 26.7682 28.6358 26.7682C28.6358 26.7682 29.506 27.2033 29.924 28.6194C30.3377 30.0484 30.0562 31.3237 29.8941 31.7076ZM25.6201 28.0692C25.5476 28.2142 25.505 28.4232 25.1381 28.4787C25.1381 28.4787 21.6277 28.7175 21.4613 28.9649C21.4613 28.9649 21.3376 29.11 21.5296 29.1526C21.7215 29.191 22.5149 29.2976 22.8988 29.319C23.3083 29.3232 24.6903 29.336 25.1851 29.9545C25.1851 29.9545 25.4794 30.2488 25.4666 30.9143C25.4538 31.5967 25.3344 31.8356 25.0699 32.083C24.7926 32.3133 22.4125 33.3797 20.877 31.7418C20.877 31.7418 20.1689 30.9526 21.1201 30.3555C21.1201 30.3555 21.8068 29.9417 23.5514 30.428C23.5514 30.428 24.0803 30.6199 24.0547 30.8119C24.0249 31.0166 23.6196 31.2342 23.031 31.2214C22.4594 31.2043 22.0414 30.9313 22.1225 30.974C22.1992 31.0038 21.5082 30.6413 21.295 30.8887C21.0817 31.1147 21.1329 31.2555 21.3419 31.3963C21.8751 31.6991 23.9353 31.5925 24.5495 30.91C24.5495 30.91 24.7926 30.6327 24.4216 30.4067C24.0505 30.1934 22.9884 30.0654 22.5746 30.0441C22.1779 30.0228 20.7021 30.0484 20.4888 29.6559C20.4888 29.6559 20.2755 29.3915 20.5101 28.6408C20.7575 27.8559 22.4765 27.5531 23.2187 27.4848C23.2187 27.4848 25.2618 27.4123 25.6372 27.8303C25.6329 27.8303 25.6841 27.9284 25.6201 28.0692ZM19.8191 32.6716C19.5717 32.855 19.0471 32.774 18.8978 32.5693C18.7485 32.3858 18.6973 31.6564 18.7272 30.5133C18.757 29.3574 18.7826 27.9242 19.03 27.6981C19.2945 27.4678 19.4566 27.6682 19.5589 27.8261C19.6698 27.9796 19.8021 28.1502 19.8319 28.5128C19.8575 28.8754 19.9428 30.7778 19.9428 30.7778C19.9428 30.7778 20.0537 32.4925 19.8191 32.6716ZM20.3523 26.5379C19.6314 26.7768 19.1366 26.6957 18.7186 26.5166C18.5352 26.8365 18.4286 26.9346 18.2878 26.9559C18.0831 26.9772 17.8997 26.6488 17.8655 26.5422C17.8314 26.4611 17.7333 26.3246 17.8527 26.0004C17.4433 25.6336 17.4134 25.1388 17.4816 24.8061C17.584 24.4222 18.275 22.9634 20.3779 22.7928C20.3779 22.7928 21.4059 22.716 21.5808 23.2663H21.6106C21.6106 23.2663 22.6087 23.2706 22.5874 24.1578C22.5746 25.0492 21.4784 26.1583 20.3523 26.5379ZM18.3902 24.563C18.1769 24.9042 18.1684 25.109 18.2665 25.2497C18.5096 24.8786 18.9532 24.2943 19.6058 23.8507C19.1025 23.8933 18.6802 24.1108 18.3902 24.563ZM21.295 23.9914C20.6338 24.0895 19.6101 24.9767 19.1239 25.7019C19.8703 25.8384 21.1883 25.7872 21.7727 24.5971C21.7684 24.5971 22.05 23.8592 21.295 23.9914ZM39.244 30.8631C38.8473 31.5541 37.734 32.9958 36.2497 32.6588C35.7591 33.8489 35.3497 35.0475 35.1151 36.8475C35.1151 36.8475 35.0639 37.1973 34.7738 37.0736C34.488 36.9712 34.0103 36.4935 33.9165 35.8323C33.8141 34.9622 34.2022 33.4906 34.9914 31.8057C34.761 31.4304 34.6032 30.8929 34.7397 30.1294C34.7397 30.1294 34.9402 28.7133 36.3606 27.4336C36.3606 27.4336 36.5312 27.2844 36.6293 27.3313C36.7402 27.3782 36.689 27.8389 36.5994 28.0607C36.5099 28.2825 35.8743 29.383 35.8743 29.383C35.8743 29.383 35.4776 30.1251 35.5885 30.7095C36.335 29.5621 38.0326 27.246 39.0862 27.9754C39.4402 28.227 39.6023 28.7773 39.6023 29.3702C39.5981 29.8948 39.4744 30.4493 39.244 30.8631ZM38.9369 29.046C38.9369 29.046 38.8772 28.5896 38.4336 29.0929C38.0497 29.5152 37.3587 30.3128 36.7999 31.392C37.3843 31.328 37.9473 31.0081 38.1179 30.846C38.3952 30.5986 39.0393 29.9332 38.9369 29.046ZM18.2281 29.6261C18.1471 30.6583 17.7504 32.3944 14.9394 33.2517C13.084 33.8105 11.3309 33.5418 10.3754 33.2986C10.3541 33.6783 10.3114 33.8404 10.2517 33.9043C10.1707 33.9854 9.56496 34.3352 9.23225 33.8404C9.08296 33.6058 9.00618 33.1792 8.96353 32.7996C6.81374 31.81 5.82415 30.3853 5.78576 30.3214C5.73884 30.2744 5.24832 29.7626 5.73884 29.1356C6.19951 28.5683 7.70522 28.0009 9.06163 27.7706C9.10855 26.6104 9.24505 25.736 9.40714 25.335C9.60335 24.8701 9.85074 25.2881 10.064 25.6038C10.2432 25.8384 10.3498 26.8493 10.3583 27.6554C11.2456 27.6128 11.7702 27.6768 12.7598 27.8559C14.048 28.0905 14.9096 28.7474 14.8328 29.4939C14.7773 30.2275 14.1034 30.5304 13.8475 30.5517C13.5788 30.573 13.1607 30.3811 13.1607 30.3811C12.875 30.2446 13.1394 30.1251 13.4849 29.9759C13.8603 29.7924 13.775 29.6048 13.775 29.6048C13.6342 29.1953 11.9621 28.9095 10.2986 28.9095C10.2901 29.8266 10.337 31.3493 10.3583 32.2365C11.5228 32.4584 12.393 32.4157 12.393 32.4157C12.393 32.4157 16.6414 32.2963 16.7693 29.5834C16.9015 26.8663 12.5337 24.2601 9.30477 23.4326C6.08008 22.5881 4.25446 23.1767 4.09664 23.2578C3.92602 23.3431 4.08385 23.3687 4.08385 23.3687C4.08385 23.3687 4.25873 23.3942 4.56158 23.4966C4.88149 23.599 4.63409 23.7653 4.63409 23.7653C4.08385 23.9402 3.46535 23.8293 3.34592 23.5777C3.22649 23.326 3.42697 23.0999 3.6573 22.7758C3.88763 22.4345 4.1393 22.4473 4.1393 22.4473C8.1275 21.0653 12.9859 23.5649 12.9859 23.5649C17.5371 25.8725 18.3134 28.5768 18.2281 29.6261ZM6.19098 29.4853C5.73884 29.7071 6.05022 30.027 6.05022 30.027C6.89905 30.9398 7.94409 31.5114 8.93794 31.8655C9.05311 30.2915 9.03604 29.737 9.04884 28.9436C7.49621 29.0502 6.60047 29.2976 6.19098 29.4853Z" fill="white"/>
<path d="M47.6896 29.1611V29.7241C47.6896 29.8478 47.5915 29.946 47.4678 29.946H44.7848C44.7848 30.0867 44.7891 30.2104 44.7891 30.3256C44.7891 31.1573 44.755 31.8356 44.6739 32.5991C44.6611 32.7142 44.5673 32.7995 44.4564 32.7995H43.8763C43.8166 32.7995 43.7611 32.774 43.7227 32.7313C43.6844 32.6886 43.663 32.6289 43.6716 32.5692C43.7526 31.81 43.791 31.1403 43.791 30.3256C43.791 30.2061 43.791 30.0824 43.7867 29.946H41.1336C41.0099 29.946 40.9118 29.8478 40.9118 29.7241V29.1611C40.9118 29.0374 41.0099 28.9393 41.1336 28.9393H43.7483C43.6929 28.0222 43.582 27.1393 43.4028 26.2435C43.3943 26.1881 43.4071 26.1326 43.4412 26.09C43.4753 26.0473 43.5265 26.0217 43.582 26.0217H44.209C44.3071 26.0217 44.3882 26.09 44.4095 26.1881C44.5844 27.1137 44.6953 28.0137 44.7507 28.9393H47.4678C47.5872 28.9393 47.6896 29.0417 47.6896 29.1611Z" fill="white"/>
<path d="M44.0384 24.6952C42.6521 21.2871 40.3104 18.3823 37.2648 16.2922C34.1468 14.1552 30.4913 13.0249 26.695 13.0249C20.4163 13.0249 14.5897 16.143 11.1133 21.3681C11.0749 21.4236 11.0664 21.4961 11.0877 21.5601C11.109 21.6283 11.1602 21.6753 11.2242 21.6966L11.7105 21.8629C11.7403 21.8715 11.7702 21.8757 11.7958 21.8757C11.8854 21.8757 11.9707 21.8288 12.0219 21.7563C13.6171 19.4103 15.7755 17.461 18.2665 16.1131C20.8386 14.7226 23.7519 13.9846 26.6908 13.9846C30.2439 13.9846 33.6691 15.0339 36.6037 17.0131C39.4658 18.9454 41.6881 21.6454 43.0317 24.8146C43.0701 24.9085 43.164 24.9725 43.2663 24.9725H43.8464C43.9147 24.9725 43.9787 24.9383 44.0128 24.8829C44.0554 24.8274 44.064 24.7592 44.0384 24.6952ZM11.7958 21.7307C11.783 21.7307 11.7702 21.7264 11.7574 21.7222C11.7702 21.7264 11.783 21.7307 11.7958 21.7307H11.8043H11.7958ZM43.1469 24.8957C43.1597 24.9042 43.1725 24.9127 43.1853 24.917C43.1725 24.9085 43.1597 24.9042 43.1469 24.8957Z" fill="url(#paint0_radial_15_255)"/>
</g>
<defs>
<radialGradient id="paint0_radial_15_255" cx="0" cy="0" r="1" gradientUnits="userSpaceOnUse" gradientTransform="translate(43.4933 24.951) scale(32.4228)">
<stop stop-color="white"/>
<stop offset="0.01" stop-color="white"/>
<stop offset="0.03" stop-color="#CBFFFF"/>
<stop offset="0.06" stop-color="#96FFFF"/>
<stop offset="0.08" stop-color="#68FFFF"/>
<stop offset="0.11" stop-color="#43FFFF"/>
<stop offset="0.14" stop-color="#25FFFF"/>
<stop offset="0.16" stop-color="#11FFFF"/>
<stop offset="0.19" stop-color="#04FFFF"/>
<stop offset="0.22" stop-color="#00FFFF"/>
<stop offset="1" stop-color="#0000FF" stop-opacity="0"/>
</radialGradient>
<clipPath id="clip0_15_255">
<rect width="50" height="50" fill="white" transform="translate(0.5 0.0625)"/>
</clipPath>
</defs>
</svg>
