<svg width="51" height="51" viewBox="0 0 51 51" fill="none" xmlns="http://www.w3.org/2000/svg">
<rect width="50" height="50" transform="translate(0.5 0.0625)" fill="#241C32"/>
<g clip-path="url(#clip0_15_266)">
<path d="M42.9836 24.7593V21.4585H45.1931V24.7574H48.5V26.9572H45.1931V30.2485H42.9836V26.9572H39.6675V24.7593H42.9836Z" fill="white"/>
<path d="M33.1173 22.3589H34.5078C35.345 22.3589 35.8801 22.809 35.8801 23.594C35.8801 24.449 35.345 25.0051 34.5078 25.0051H33.1173V22.3589ZM35.5106 26.7265C36.9503 26.5354 38.1387 25.2491 38.1387 23.613C38.1387 21.4906 36.7482 20.3254 34.5078 20.3254H30.8915V31.0089H33.1192V26.7265L35.8819 31.0051H38.459L35.5106 26.7265Z" fill="white"/>
<path d="M17.5145 22.4288V20.3235H10.7332V22.4288H12.9936V31.0051H15.2559V22.4288H17.5145Z" fill="white"/>
<path d="M6.549 24.2561C5.87924 23.9421 5.62626 23.596 5.62626 23.1439C5.62626 22.6199 6.04486 22.1849 6.71462 22.2038C7.29884 22.2189 7.75384 22.5499 8.07234 23.3349L9.9979 22.4459C9.46464 21.0216 8.37628 20.1874 6.61998 20.1874C4.76176 20.1874 3.38948 21.4585 3.38948 23.1609C3.38948 24.3261 3.94276 25.2473 5.2477 25.9282L6.68732 26.6773C7.48812 27.0972 7.87578 27.4074 7.87578 28.0146C7.87578 28.6748 7.3589 29.1458 6.68732 29.1458C5.9666 29.1458 5.31504 28.7258 5.01292 27.7895L3 28.3986C3.46774 30.1577 4.85822 31.1849 6.6673 31.1849C8.62562 31.1849 10.1326 29.8797 10.1326 28.0014C10.1326 26.5562 9.38092 25.5991 7.93766 24.9238L6.549 24.2561Z" fill="white"/>
<path d="M30.2873 23.7151H25.0712L23.4568 18.5625L21.8425 23.7151H16.6282L20.8124 26.9061C20.8124 26.9061 22.858 25.5064 25.3369 24.9786C21.6805 27.7838 19.6949 30.5663 19.6949 30.5663L19.2381 32.0625L23.4568 28.879L27.6774 32.0625L26.0667 26.9061L30.2873 23.7151Z" fill="url(#paint0_linear_15_266)"/>
</g>
<defs>
<linearGradient id="paint0_linear_15_266" x1="18.6864" y1="31.4893" x2="28.6235" y2="21.9368" gradientUnits="userSpaceOnUse">
<stop offset="0.28" stop-color="#FA1660"/>
<stop offset="0.78" stop-color="#FF7D17"/>
</linearGradient>
<clipPath id="clip0_15_266">
<rect width="45.5" height="13.5" fill="white" transform="translate(3 18.5625)"/>
</clipPath>
</defs>
</svg>
