<svg width="51" height="51" viewBox="0 0 51 51" fill="none" xmlns="http://www.w3.org/2000/svg">
<rect width="50" height="50" transform="translate(0.5 0.0625)" fill="#E7E7E7"/>
<path d="M29.1133 6.09253L29.096 14.467L29.0786 22.8415L28.2792 20.8974V20.8924L27.2423 39.5356C28.2618 42.0081 28.8063 43.3291 28.8121 43.334C28.8179 43.339 29.3972 43.3689 30.0981 43.3988C32.2182 43.4886 34.8481 43.683 36.8466 43.8973C37.31 43.9472 37.7039 43.9721 37.7329 43.9522C37.7618 43.9322 37.7676 35.4082 37.7618 25.0049L37.7444 6.09253H29.1133Z" fill="url(#paint0_linear_15_250)"/>
<path d="M13.5 6.06749V24.9998C13.5 35.4131 13.5116 43.9421 13.529 43.9571C13.5463 43.9721 14.2936 43.9073 15.1973 43.8225C16.1009 43.7378 17.3463 43.6281 17.9662 43.5832C18.9162 43.5135 21.7662 43.3589 22.0906 43.3539C22.189 43.3539 22.1948 42.9302 22.2064 35.3334L22.2238 27.3128L22.9131 28.9877C23.0174 29.2469 23.0522 29.3267 23.1564 29.5809L24.1933 10.9426C23.9732 10.4093 24.089 10.6884 23.84 10.0803C22.9942 8.02153 22.2759 6.28183 22.247 6.20207L22.189 6.0625H13.5V6.06749Z" fill="url(#paint1_linear_15_250)"/>
<path d="M13.5 6.06749L22.2181 27.3276V27.3176L22.9074 28.9925C26.7364 38.3191 28.7928 43.3238 28.8044 43.3338C28.8102 43.3388 29.3894 43.3687 30.0904 43.3986C32.2105 43.4883 34.8404 43.6827 36.8389 43.8971C37.2965 43.9469 37.6962 43.9718 37.7194 43.9519L29.0766 22.8363V22.8413L28.2772 20.8972C27.4952 18.998 26.9739 17.7269 23.8284 10.0802C22.9827 8.02152 22.2644 6.28183 22.2354 6.20207L22.1775 6.0625H17.8388L13.5 6.06749Z" fill="#E30A17"/>
<defs>
<linearGradient id="paint0_linear_15_250" x1="41.6547" y1="34.4053" x2="27.8403" y2="40.472" gradientUnits="userSpaceOnUse">
<stop stop-color="#B20610"/>
<stop offset="0.255959" stop-color="#B20610"/>
<stop offset="1" stop-color="#590004"/>
</linearGradient>
<linearGradient id="paint1_linear_15_250" x1="9.31084" y1="14.3691" x2="24.2507" y2="7.88384" gradientUnits="userSpaceOnUse">
<stop stop-color="#B20610"/>
<stop offset="0.255959" stop-color="#B20610"/>
<stop offset="1" stop-color="#590004"/>
</linearGradient>
</defs>
</svg>
