<svg width="151" height="150" viewBox="0 0 151 150" fill="none" xmlns="http://www.w3.org/2000/svg">
<rect width="150" height="150" transform="translate(0.666656)" fill="black"/>
<path d="M32.7231 95.1453L37.9718 92.7471C37.9718 92.7471 45.6062 89.3895 50.3777 86.9913C50.8548 86.9913 51.332 86.5116 51.8091 86.5116C53.2406 86.5116 54.1949 86.9913 55.1492 87.4709C55.1492 87.4709 55.6263 87.9506 62.3064 95.625C62.7836 96.5843 63.7379 97.0639 64.6922 97.0639H65.1693C65.6465 97.0639 66.6008 96.5843 67.0779 96.1046L69.4637 95.1453C74.7124 92.7471 79.4839 89.8692 83.3011 86.032C84.2554 85.0727 85.6868 84.1134 86.6411 83.1541C89.9812 79.7965 93.3212 75.9593 95.707 71.6424L96.1841 70.6831C96.6613 70.2035 96.6613 69.7238 97.1385 68.7645C97.1385 67.8052 97.1385 66.8459 96.6613 66.3663C96.6613 66.3663 94.7527 63.968 93.3212 62.5291C92.3669 61.5698 91.8898 60.1308 90.9355 59.1715C89.9812 57.7326 89.504 55.8139 89.9812 54.375C90.4583 51.9767 96.1842 39.0262 97.6156 36.1483C98.5699 34.7093 99.5242 34.2297 100.956 33.75H102.387C103.341 33.75 104.773 33.75 106.204 33.75C107.159 33.75 108.113 34.2297 109.067 34.2297L109.544 34.7093C110.499 35.189 111.453 36.1483 112.407 36.6279C113.362 37.5872 113.839 38.5465 114.793 39.5058C118.133 43.8227 120.042 49.0988 120.042 54.375C120.042 58.2122 119.087 62.0494 117.656 65.407L117.179 66.8459C112.884 75.9593 107.159 84.1134 99.5242 91.3081L97.6156 93.2267C96.1842 94.6657 94.7527 95.625 93.7984 97.0639C83.7782 105.698 72.3266 111.933 59.4435 115.291C58.0121 115.77 56.1035 115.77 54.672 116.25C53.2406 116.25 51.332 116.25 49.9005 116.25C47.5148 116.25 44.6519 115.291 42.7433 114.331C41.3118 113.372 40.3575 113.372 39.4032 112.413L38.4489 111.453C37.4946 110.494 36.5403 110.015 35.586 109.055C34.6317 108.096 33.6774 107.137 33.2003 106.177C32.2459 104.259 31.7688 101.86 31.2917 99.4622C31.2917 98.5029 31.2917 97.0639 31.2917 96.1046C31.2917 96.1046 31.7688 95.625 32.7231 95.1453Z" fill="white"/>
</svg>
