<svg width="150" height="150" viewBox="0 0 150 150" fill="none" xmlns="http://www.w3.org/2000/svg">
<g id="WhatsApp">
<g id="WhatsApp_2">
<rect id="Rectangle" width="150" height="150" fill="black"/>
<path id="Vector" d="M108.596 41.2859C100.555 33.0089 89.4405 28.5156 78.0891 28.5156C53.9675 28.5156 34.5756 48.144 34.8121 72.0291C34.8121 79.5967 36.9405 86.9278 40.4878 93.5494L34.3391 116.016L57.2783 110.103C63.6635 113.651 70.7581 115.306 77.8526 115.306C101.738 115.306 121.13 95.6778 121.13 71.7926C121.13 60.2048 116.636 49.3264 108.596 41.2859ZM78.0891 107.975C71.704 107.975 65.3189 106.32 59.8797 103.009L58.4608 102.299L44.7445 105.847L48.2918 92.367L47.3459 90.9481C36.9405 74.1575 41.9067 51.9278 58.9337 41.5224C75.9608 31.117 97.954 36.0832 108.359 53.1102C118.765 70.1372 113.799 92.1305 96.7716 102.536C91.3324 106.083 84.7108 107.975 78.0891 107.975ZM98.8999 81.7251L96.2986 80.5426C96.2986 80.5426 92.5148 78.8872 90.15 77.7048C89.9135 77.7048 89.677 77.4683 89.4405 77.4683C88.731 77.4683 88.2581 77.7048 87.7851 77.9413C87.7851 77.9413 87.5486 78.1778 84.2378 81.9616C84.0013 82.4345 83.5283 82.671 83.0554 82.671H82.8189C82.5824 82.671 82.1094 82.4345 81.8729 82.1981L80.6905 81.7251C78.0891 80.5426 75.7243 79.1237 73.8324 77.2318C73.3594 76.7589 72.65 76.2859 72.177 75.8129C70.5216 74.1575 68.8662 72.2656 67.6837 70.1372L67.4473 69.6643C67.2108 69.4278 67.2108 69.1913 66.9743 68.7183C66.9743 68.2454 66.9743 67.7724 67.2108 67.5359C67.2108 67.5359 68.1567 66.3535 68.8662 65.644C69.3391 65.171 69.5756 64.4616 70.0486 63.9886C70.5216 63.2791 70.7581 62.3332 70.5216 61.6237C70.2851 60.4413 67.4472 54.0562 66.7378 52.6372C66.2648 51.9278 65.7918 51.6913 65.0824 51.4548H64.3729C63.9 51.4548 63.1905 51.4548 62.481 51.4548C62.0081 51.4548 61.5351 51.6913 61.0621 51.6913L60.8256 51.9278C60.3527 52.1643 59.8797 52.6372 59.4067 52.8737C58.9337 53.3467 58.6973 53.8197 58.2243 54.2927C56.5689 56.421 55.6229 59.0224 55.6229 61.6237C55.6229 63.5156 56.0959 65.4075 56.8054 67.0629L57.0418 67.7724C59.1702 72.2656 62.0081 76.2859 65.7918 79.8332L66.7378 80.7791C67.4472 81.4886 68.1567 81.9616 68.6297 82.671C73.5959 86.9278 79.2716 90.0021 85.6567 91.6575C86.3662 91.894 87.3121 91.894 88.0216 92.1305C88.731 92.1305 89.677 92.1305 90.3864 92.1305C91.5689 92.1305 92.9878 91.6575 93.9337 91.1845C94.6432 90.7116 95.1162 90.7116 95.5891 90.2386L96.0621 89.7656C96.5351 89.2926 97.0081 89.0562 97.481 88.5832C97.954 88.1102 98.427 87.6372 98.6635 87.1643C99.1364 86.2183 99.3729 85.0359 99.6094 83.8535C99.6094 83.3805 99.6094 82.671 99.6094 82.1981C99.6094 82.1981 99.3729 81.9616 98.8999 81.7251Z" fill="white"/>
</g>
</g>
</svg>
