<svg width="60" height="60" viewBox="0 0 60 60" fill="none" xmlns="http://www.w3.org/2000/svg">
<rect width="60" height="60" transform="matrix(1 0 0 -1 0 60)" fill="white"/>
<g clip-path="url(#clip0_17_444)">
<path d="M36.75 47.9717H23.25C17.0377 47.9717 12 42.9339 12 36.7217V23.2217C12 17.0094 17.0377 11.9717 23.25 11.9717H36.75C42.9622 11.9717 48 17.0094 48 23.2217V36.7217C48 42.9339 42.9622 47.9717 36.75 47.9717ZM44.625 23.2217C44.625 18.8792 41.0925 15.3467 36.75 15.3467H23.25C18.9075 15.3467 15.375 18.8792 15.375 23.2217V36.7217C15.375 41.0642 18.9075 44.5967 23.25 44.5967H36.75C41.0925 44.5967 44.625 41.0642 44.625 36.7217V23.2217Z" fill="black"/>
<path d="M30 38.9717C25.0297 38.9717 21 34.9419 21 29.9717C21 25.0014 25.0297 20.9717 30 20.9717C34.9702 20.9717 39 25.0014 39 29.9717C39 34.9419 34.9702 38.9717 30 38.9717ZM30 24.3467C26.8995 24.3467 24.375 26.8712 24.375 29.9717C24.375 33.0744 26.8995 35.5967 30 35.5967C33.1005 35.5967 35.625 33.0744 35.625 29.9717C35.625 26.8712 33.1005 24.3467 30 24.3467Z" fill="black"/>
<path d="M39.675 38.4474C40.3373 38.4474 40.8742 38.9844 40.8742 39.6467C40.8742 40.309 40.3373 40.8459 39.675 40.8459C39.0126 40.8459 38.4757 40.309 38.4757 39.6467C38.4757 38.9844 39.0126 38.4474 39.675 38.4474Z" fill="black"/>
</g>
<defs>
<clipPath id="clip0_17_444">
<rect width="36" height="36" fill="white" transform="matrix(1 0 0 -1 12 47.9717)"/>
</clipPath>
</defs>
</svg>
