<svg width="60" height="60" viewBox="0 0 60 60" fill="none" xmlns="http://www.w3.org/2000/svg">
<rect width="60" height="60" fill="white"/>
<g clip-path="url(#clip0_17_460)">
<path d="M48.0013 18.8373C46.6626 19.4245 45.2361 19.8138 43.7488 20.0028C45.2788 19.0893 46.4466 17.6538 46.9956 15.9235C45.5691 16.774 43.9941 17.3748 42.3156 17.71C40.9611 16.2678 39.0306 15.3745 36.9246 15.3745C32.8386 15.3745 29.5491 18.691 29.5491 22.7568C29.5491 23.3418 29.5986 23.9043 29.7201 24.4398C23.5843 24.1405 18.1551 21.1998 14.5078 16.72C13.8711 17.8248 13.4976 19.0893 13.4976 20.4505C13.4976 23.0065 14.8138 25.2723 16.7758 26.584C15.5901 26.5615 14.4268 26.2173 13.4413 25.675C13.4413 25.6975 13.4413 25.7268 13.4413 25.756C13.4413 29.3425 15.9996 32.3215 19.3543 33.0078C18.7536 33.172 18.0988 33.2508 17.4193 33.2508C16.9468 33.2508 16.4698 33.2238 16.0221 33.1248C16.9783 36.0475 19.6918 38.1963 22.9183 38.266C20.4073 40.2303 17.2191 41.4138 13.7676 41.4138C13.1623 41.4138 12.5818 41.3868 12.0013 41.3125C15.2706 43.4208 19.1451 44.6245 23.3233 44.6245C36.9043 44.6245 44.3293 33.3745 44.3293 23.623C44.3293 23.2968 44.3181 22.9818 44.3023 22.669C45.7671 21.6295 46.9978 20.3313 48.0013 18.8373Z" fill="black"/>
</g>
<defs>
<clipPath id="clip0_17_460">
<rect width="36" height="36" fill="white" transform="translate(12.0013 11.9995)"/>
</clipPath>
</defs>
</svg>
