<svg width="202" height="141" viewBox="0 0 202 141" fill="none" xmlns="http://www.w3.org/2000/svg">
<g clip-path="url(#clip0_22_34)">
<path d="M4.19086 84.031V82.023C4.19086 74.6921 5.3513 67.8393 7.67217 61.4646C10.0594 55.0899 13.4744 49.512 17.9172 44.731C22.36 39.8862 27.698 36.1251 33.9312 33.4477C40.2308 30.7066 47.2929 29.3361 55.1175 29.3361C62.0802 29.3361 68.3134 30.5154 73.8172 32.874C79.321 35.1689 84.1285 38.2606 88.2398 42.1492C92.351 45.974 95.8655 50.1814 98.7832 54.7711C101.767 59.3609 104.188 63.9507 106.044 68.5405C107.967 73.0666 109.459 77.2101 110.52 80.9712V83.7442C109.459 87.5053 107.967 91.7126 106.044 96.3661C104.188 101.02 101.8 105.705 98.8827 110.422C95.965 115.14 92.4174 119.506 88.2398 123.522C84.1285 127.475 79.3541 130.662 73.9166 133.084C68.4792 135.443 62.2791 136.622 55.3165 136.622C47.4255 136.622 40.3302 135.284 34.0307 132.606C27.7312 129.929 22.36 126.168 17.9172 121.323C13.4744 116.478 10.0594 110.9 7.67217 104.589C5.3513 98.2148 4.19086 91.362 4.19086 84.031ZM32.0414 82.023V84.031C32.0414 88.3021 32.5719 92.2863 33.6328 95.9836C34.6938 99.6809 36.2853 102.932 38.4072 105.737C40.5292 108.478 43.1153 110.614 46.1656 112.144C49.2822 113.673 52.863 114.438 56.9079 114.438C60.8866 114.438 64.4342 113.578 67.5508 111.857C70.7337 110.072 73.4856 107.872 75.8065 105.259C78.1937 102.581 80.1499 99.8084 81.675 96.9398C83.2665 94.0075 84.4932 91.362 85.3553 89.0033C86.2173 86.5809 86.7478 84.8279 86.9467 83.7442V80.9712C86.7478 79.9512 86.2173 78.2938 85.3553 75.9989C84.4932 73.704 83.2665 71.186 81.675 68.4449C80.1499 65.64 78.1937 62.9626 75.8065 60.4128C73.4856 57.7991 70.7337 55.6636 67.5508 54.0062C64.3679 52.3488 60.754 51.52 56.709 51.52C52.7303 51.52 49.2159 52.3169 46.1656 53.9106C43.1153 55.5042 40.5292 57.7035 38.4072 60.5084C36.2853 63.3132 34.6938 66.5644 33.6328 70.2617C32.5719 73.959 32.0414 77.8795 32.0414 82.023ZM198.647 82.023V84.031C198.647 91.362 197.454 98.2148 195.066 104.589C192.746 110.9 189.331 116.478 184.821 121.323C180.379 126.168 174.974 129.929 168.608 132.606C162.309 135.284 155.247 136.622 147.422 136.622C140.46 136.622 134.226 135.443 128.723 133.084C123.285 130.662 118.477 127.475 114.3 123.522C110.189 119.506 106.674 115.14 103.757 110.422C100.839 105.705 98.4185 101.02 96.4955 96.3661C94.5725 91.7126 93.1136 87.5053 92.119 83.7442V80.9712C93.1799 77.2101 94.6719 73.0666 96.5949 68.5405C98.5179 63.9507 100.938 59.3609 103.856 54.7711C106.774 50.1814 110.288 45.974 114.399 42.1492C118.577 38.2606 123.384 35.1689 128.822 32.874C134.326 30.5154 140.592 29.3361 147.621 29.3361C155.446 29.3361 162.475 30.7066 168.708 33.4477C175.007 36.1251 180.379 39.8862 184.821 44.731C189.331 49.512 192.746 55.0899 195.066 61.4646C197.454 67.8393 198.647 74.6921 198.647 82.023ZM170.697 84.031V82.023C170.697 77.8795 170.134 73.959 169.006 70.2617C167.945 66.5644 166.387 63.3132 164.331 60.5084C162.276 57.7035 159.69 55.5042 156.573 53.9106C153.523 52.3169 150.008 51.52 146.03 51.52C141.918 51.52 138.271 52.3488 135.088 54.0062C131.972 55.6636 129.22 57.7991 126.833 60.4128C124.445 62.9626 122.456 65.64 120.865 68.4449C119.34 71.186 118.146 73.704 117.284 75.9989C116.422 78.2938 115.925 79.9512 115.792 80.9712V83.7442C115.925 84.8279 116.422 86.5809 117.284 89.0033C118.146 91.362 119.373 94.0075 120.964 96.9398C122.556 99.8084 124.512 102.581 126.833 105.259C129.22 107.872 131.972 110.072 135.088 111.857C138.271 113.578 141.852 114.438 145.831 114.438C149.809 114.438 153.324 113.673 156.374 112.144C159.491 110.614 162.11 108.478 164.232 105.737C166.354 102.932 167.945 99.6809 169.006 95.9836C170.134 92.2863 170.697 88.3021 170.697 84.031Z" fill="black"/>
<path fill-rule="evenodd" clip-rule="evenodd" d="M3.91979 60.0789L3.92621 60.0618C6.48695 53.2237 10.1689 47.1956 14.9781 42.0177C19.8119 36.7493 25.6155 32.6676 32.3439 29.7762C39.2101 26.79 46.8232 25.3361 55.1175 25.3361C62.5272 25.3361 69.3032 26.591 75.3746 29.1896C81.2887 31.658 86.5016 35.0023 90.9765 39.2319C94.9389 42.9199 98.3896 46.9557 101.32 51.338C104.252 46.9512 107.707 42.9117 111.675 39.2206C116.204 35.0049 121.407 31.663 127.257 29.1929C133.335 26.5902 140.148 25.3361 147.621 25.3361C155.909 25.3361 163.49 26.7878 170.295 29.7762C177.08 32.6632 182.915 36.7396 187.751 42.0068C192.632 47.1879 196.321 53.2253 198.819 60.0786C201.382 66.9305 202.647 74.2564 202.647 82.023V84.031C202.647 91.7998 201.381 99.1277 198.817 105.981C196.317 112.774 192.628 118.804 187.759 124.038C182.91 129.322 177.027 133.404 170.164 136.291C163.306 139.204 155.705 140.622 147.422 140.622C140.005 140.622 133.223 139.365 127.147 136.761L127.121 136.75L127.095 136.738C121.259 134.138 116.069 130.702 111.551 126.428L111.528 126.406L111.505 126.384C107.611 122.58 104.213 118.466 101.319 114.042C98.4119 118.477 94.9727 122.598 91.0119 126.406C86.5522 130.693 81.3863 134.136 75.5444 136.738L75.5265 136.746L75.5084 136.754C69.4886 139.365 62.7323 140.622 55.3165 140.622C46.9693 140.622 39.3303 139.205 32.4661 136.288C25.6631 133.396 19.814 129.31 14.9691 124.027C10.1732 118.797 6.49325 112.779 3.93088 106.005L3.92206 105.981L3.91353 105.958C1.42057 99.1105 0.190857 91.791 0.190857 84.031V82.023C0.190857 74.2631 1.42057 66.9435 3.91353 60.0962L3.91979 60.0789ZM98.9857 110.255C99.8043 108.926 100.581 107.6 101.315 106.276C102.055 107.599 102.834 108.925 103.652 110.253C103.687 110.31 103.722 110.366 103.757 110.422C106.674 115.14 110.189 119.506 114.3 123.522C118.477 127.475 123.285 130.662 128.723 133.084C134.226 135.443 140.46 136.622 147.422 136.622C155.247 136.622 162.309 135.284 168.608 132.606C174.974 129.929 180.379 126.168 184.821 121.323C189.331 116.478 192.746 110.9 195.066 104.589C197.454 98.2148 198.647 91.362 198.647 84.031V82.023C198.647 74.6921 197.454 67.8393 195.066 61.4646C192.746 55.0899 189.331 49.512 184.821 44.731C180.379 39.8862 175.007 36.1251 168.708 33.4477C162.475 30.7066 155.446 29.3361 147.621 29.3361C140.592 29.3361 134.326 30.5154 128.822 32.874C123.384 35.1689 118.577 38.2606 114.399 42.1492C110.288 45.974 106.774 50.1814 103.856 54.7711C103.798 54.8629 103.74 54.9546 103.682 55.0464C102.861 56.3454 102.081 57.6445 101.341 58.9436C100.596 57.651 99.8076 56.3584 98.974 55.0658C98.9107 54.9676 98.8471 54.8694 98.7832 54.7711C95.8655 50.1814 92.3511 45.974 88.2398 42.1492C84.1285 38.2606 79.321 35.1689 73.8172 32.874C68.3134 30.5154 62.0802 29.3361 55.1175 29.3361C47.2929 29.3361 40.2308 30.7066 33.9312 33.4477C27.698 36.1251 22.36 39.8862 17.9172 44.731C13.4744 49.512 10.0594 55.0899 7.67217 61.4646C5.3513 67.8393 4.19086 74.6921 4.19086 82.023V84.031C4.19086 91.362 5.3513 98.2148 7.67217 104.589C10.0594 110.9 13.4744 116.478 17.9172 121.323C22.36 126.168 27.7312 129.929 34.0307 132.606C40.3302 135.284 47.4255 136.622 55.3165 136.622C62.2791 136.622 68.4792 135.443 73.9166 133.084C79.3541 130.662 84.1285 127.475 88.2398 123.522C92.4174 119.506 95.965 115.14 98.8827 110.422C98.9171 110.367 98.9514 110.311 98.9857 110.255ZM126.833 60.4128C129.22 57.7991 131.972 55.6636 135.088 54.0062C138.271 52.3488 141.918 51.52 146.03 51.52C150.008 51.52 153.523 52.3169 156.573 53.9106C159.69 55.5042 162.276 57.7035 164.331 60.5084C166.387 63.3132 167.945 66.5644 169.006 70.2617C170.134 73.959 170.697 77.8795 170.697 82.023V84.031C170.697 88.3021 170.134 92.2863 169.006 95.9836C167.945 99.681 166.354 102.932 164.232 105.737C162.11 108.478 159.491 110.614 156.374 112.144C153.324 113.673 149.809 114.438 145.831 114.438C141.852 114.438 138.271 113.578 135.088 111.857C131.972 110.072 129.22 107.872 126.833 105.259C124.512 102.581 122.556 99.8084 120.964 96.9398C119.373 94.0075 118.146 91.362 117.284 89.0033C116.422 86.5809 115.925 84.8279 115.792 83.7442V80.9712C115.925 79.9512 116.422 78.2938 117.284 75.9989C118.146 73.704 119.34 71.186 120.865 68.4449C122.456 65.64 124.445 62.9626 126.833 60.4128ZM119.792 81.2839V83.4558C119.91 84.1374 120.274 85.4734 121.047 87.6461C121.822 89.7643 122.953 92.2163 124.47 95.0146C125.908 97.6031 127.686 100.132 129.821 102.599C131.905 104.873 134.304 106.792 137.033 108.361C139.565 109.721 142.467 110.438 145.831 110.438C149.29 110.438 152.172 109.776 154.581 108.568L154.596 108.56L154.611 108.553C157.174 107.295 159.31 105.555 161.055 103.306C162.847 100.933 164.226 98.1409 165.161 94.8803L165.171 94.8486L165.18 94.8171C166.181 91.5352 166.697 87.9479 166.697 84.031V82.023C166.697 78.2464 166.184 74.7212 165.18 71.4282L165.171 71.3967L165.161 71.365C164.217 68.0733 162.854 65.2588 161.105 62.8729C159.421 60.5745 157.317 58.7836 154.752 57.4719L154.736 57.464L154.721 57.4558C152.326 56.2044 149.464 55.52 146.03 55.52C142.474 55.52 139.482 56.2315 136.951 57.546C134.245 58.9871 131.862 60.8375 129.786 63.1103L129.77 63.1285L129.753 63.1465C127.568 65.4806 125.774 67.901 124.352 70.4048C122.902 73.012 121.803 75.3428 121.028 77.4055C120.264 79.4406 119.909 80.6721 119.792 81.2839ZM81.675 96.9398C80.1499 99.8084 78.1937 102.581 75.8065 105.259C73.4856 107.872 70.7337 110.072 67.5508 111.857C64.4342 113.578 60.8866 114.438 56.9079 114.438C52.863 114.438 49.2822 113.673 46.1656 112.144C43.1153 110.614 40.5292 108.478 38.4072 105.737C36.2853 102.932 34.6938 99.681 33.6328 95.9836C32.5719 92.2863 32.0414 88.3021 32.0414 84.031V82.023C32.0414 77.8795 32.5719 73.959 33.6328 70.2617C34.6938 66.5644 36.2853 63.3132 38.4072 60.5084C40.5292 57.7035 43.1153 55.5042 46.1656 53.9106C49.2159 52.3169 52.7303 51.52 56.709 51.52C60.754 51.52 64.3679 52.3488 67.5508 54.0062C70.7337 55.6636 73.4856 57.7991 75.8065 60.4128C78.1937 62.9626 80.1499 65.64 81.675 68.4449C83.2665 71.186 84.4932 73.704 85.3553 75.9989C86.2173 78.2938 86.7478 79.9512 86.9467 80.9712V83.7442C86.7478 84.8279 86.2173 86.5809 85.3553 89.0033C84.4932 91.362 83.2665 94.0075 81.675 96.9398ZM81.5925 87.646C82.3399 85.5449 82.7618 84.1484 82.9467 83.3378V81.4074C82.762 80.6614 82.3475 79.3668 81.6107 77.4055C80.8457 75.3688 79.7261 73.0546 78.2158 70.4533L78.1877 70.4049L78.1609 70.3557C76.8125 67.8758 75.0631 65.4714 72.8865 63.1465L72.8505 63.1081L72.8155 63.0687C70.827 60.8293 68.4657 58.9924 65.7034 57.554C63.1601 56.2296 60.1935 55.52 56.709 55.52C53.2743 55.52 50.4131 56.2044 48.0179 57.4558C45.5034 58.7696 43.3705 60.5777 41.5972 62.9217C39.799 65.2987 38.4156 68.0965 37.4777 71.365C36.5273 74.677 36.0414 78.224 36.0414 82.023V84.031C36.0414 87.9695 36.5303 91.5788 37.4777 94.8803C38.4133 98.1407 39.7921 100.933 41.5838 103.306C43.3389 105.568 45.45 107.307 47.9432 108.56C50.4245 109.775 53.3806 110.438 56.9079 110.438C60.2861 110.438 63.151 109.714 65.606 108.361C68.4123 106.786 70.8063 104.866 72.8155 102.603L72.8209 102.597C75.0171 100.134 76.7827 97.6208 78.1432 95.0621L78.1512 95.0469L78.1594 95.0318C79.682 92.2264 80.8156 89.7686 81.5925 87.646Z" fill="url(#paint0_linear_22_34)"/>
</g>
<defs>
<linearGradient id="paint0_linear_22_34" x1="139.556" y1="107.286" x2="66.5769" y2="82.7791" gradientUnits="userSpaceOnUse">
<stop stop-color="#D23900"/>
<stop offset="1" stop-color="#D23900" stop-opacity="0"/>
</linearGradient>
<clipPath id="clip0_22_34">
<rect width="202" height="140.813" fill="white"/>
</clipPath>
</defs>
</svg>
