<svg width="202" height="141" viewBox="0 0 202 141" fill="none" xmlns="http://www.w3.org/2000/svg">
<path d="M45.83 139.406C34.7527 128.329 27.2089 114.216 24.1527 98.851C21.0964 83.4862 22.665 67.5602 28.66 53.087C34.655 38.6137 44.8073 26.2432 57.8328 17.5397C70.8584 8.8363 86.1724 4.19086 101.838 4.19086C117.504 4.19086 132.818 8.8363 145.843 17.5397C158.869 26.2432 169.021 38.6137 175.016 53.087C181.011 67.5602 182.58 83.4862 179.524 98.851C176.467 114.216 168.924 128.329 157.846 139.406L141.352 122.913C149.167 115.097 154.49 105.14 156.646 94.3003C158.802 83.4603 157.695 72.2244 153.466 62.0134C149.236 51.8024 142.074 43.0749 132.884 36.9346C123.695 30.7943 112.89 27.5169 101.838 27.5169C90.7858 27.5169 79.9817 30.7943 70.7921 36.9346C61.6024 43.0749 54.44 51.8024 50.2104 62.0134C45.9809 72.2244 44.8743 83.4603 47.0305 94.3003C49.1866 105.14 54.5088 115.097 62.324 122.913L45.83 139.406Z" fill="black"/>
<path fill-rule="evenodd" clip-rule="evenodd" d="M102.839 81.4142C104.011 80.2427 105.91 80.2427 107.082 81.4142L139.719 114.051C140.891 115.223 140.891 117.122 139.719 118.294C138.547 119.465 136.648 119.465 135.476 118.294L102.839 85.6569C101.668 84.4853 101.668 82.5858 102.839 81.4142Z" fill="#D23900"/>
<path d="M107.688 56.4062V102H98.6875V66.7812L87.875 70.2188V63.125L106.719 56.4062H107.688Z" fill="black"/>
<path fill-rule="evenodd" clip-rule="evenodd" d="M110.688 53.4062V105H95.6875V70.883L84.875 74.3205V61.0097L106.2 53.4062H110.688ZM98.6875 66.7812V102H107.688V56.4062H106.719L87.875 63.125V70.2188L98.6875 66.7812Z" fill="white"/>
<path d="M92.4688 110.474V114.982C92.2917 115.195 92.0182 115.427 91.6484 115.677C91.2786 115.922 90.8021 116.133 90.2188 116.31C89.6354 116.487 88.9297 116.575 88.1016 116.575C87.3672 116.575 86.6979 116.456 86.0938 116.216C85.4896 115.971 84.9688 115.614 84.5312 115.146C84.099 114.677 83.7656 114.104 83.5312 113.427C83.2969 112.745 83.1797 111.966 83.1797 111.091V110.38C83.1797 109.505 83.2917 108.726 83.5156 108.044C83.7448 107.362 84.0703 106.786 84.4922 106.318C84.9141 105.849 85.4167 105.492 86 105.247C86.5833 105.002 87.2318 104.88 87.9453 104.88C88.9349 104.88 89.7474 105.041 90.3828 105.364C91.0182 105.682 91.5026 106.125 91.8359 106.693C92.1745 107.255 92.3828 107.901 92.4609 108.63H90.1875C90.1302 108.245 90.0208 107.909 89.8594 107.622C89.6979 107.336 89.4661 107.112 89.1641 106.95C88.8672 106.789 88.4818 106.708 88.0078 106.708C87.6172 106.708 87.2682 106.789 86.9609 106.95C86.6589 107.107 86.4036 107.338 86.1953 107.646C85.987 107.953 85.8281 108.333 85.7188 108.786C85.6094 109.239 85.5547 109.765 85.5547 110.364V111.091C85.5547 111.685 85.612 112.211 85.7266 112.669C85.8411 113.122 86.0104 113.505 86.2344 113.818C86.4635 114.125 86.7448 114.357 87.0781 114.513C87.4115 114.669 87.7995 114.747 88.2422 114.747C88.612 114.747 88.9193 114.716 89.1641 114.653C89.4141 114.591 89.6146 114.515 89.7656 114.427C89.9219 114.333 90.0417 114.245 90.125 114.161V112.146H87.9844V110.474H92.4688Z" fill="black"/>
<path d="M94.2188 104.419H96.4688V114.482L96.2422 116.419H94.2188V104.419ZM101.82 112.107V112.271C101.82 112.901 101.753 113.479 101.617 114.005C101.487 114.531 101.284 114.987 101.008 115.372C100.732 115.752 100.388 116.049 99.9766 116.263C99.5703 116.471 99.0911 116.575 98.5391 116.575C98.0234 116.575 97.5755 116.471 97.1953 116.263C96.8203 116.054 96.5052 115.76 96.25 115.38C95.9948 115 95.7891 114.554 95.6328 114.044C95.4766 113.534 95.3594 112.976 95.2812 112.372V112.013C95.3594 111.409 95.4766 110.851 95.6328 110.341C95.7891 109.831 95.9948 109.385 96.25 109.005C96.5052 108.625 96.8203 108.331 97.1953 108.122C97.5703 107.914 98.013 107.81 98.5234 107.81C99.0807 107.81 99.5651 107.916 99.9766 108.13C100.393 108.338 100.737 108.635 101.008 109.021C101.284 109.401 101.487 109.854 101.617 110.38C101.753 110.901 101.82 111.476 101.82 112.107ZM99.5703 112.271V112.107C99.5703 111.763 99.5443 111.44 99.4922 111.138C99.4453 110.831 99.362 110.562 99.2422 110.333C99.1224 110.099 98.9583 109.914 98.75 109.778C98.5469 109.643 98.2839 109.575 97.9609 109.575C97.6536 109.575 97.3932 109.627 97.1797 109.732C96.9661 109.836 96.7891 109.982 96.6484 110.169C96.513 110.357 96.4115 110.581 96.3438 110.841C96.276 111.096 96.2344 111.377 96.2188 111.685V112.708C96.2344 113.12 96.3021 113.484 96.4219 113.802C96.5469 114.114 96.7344 114.362 96.9844 114.544C97.2396 114.721 97.5703 114.81 97.9766 114.81C98.2943 114.81 98.5573 114.747 98.7656 114.622C98.974 114.497 99.1354 114.32 99.25 114.091C99.3698 113.862 99.4531 113.594 99.5 113.286C99.5469 112.974 99.5703 112.635 99.5703 112.271Z" fill="black"/>
<path d="M105.469 109.591V119.669H103.219V107.966H105.305L105.469 109.591ZM110.82 112.099V112.263C110.82 112.877 110.747 113.448 110.602 113.974C110.461 114.5 110.253 114.958 109.977 115.349C109.701 115.734 109.357 116.036 108.945 116.255C108.539 116.469 108.07 116.575 107.539 116.575C107.023 116.575 106.576 116.471 106.195 116.263C105.815 116.054 105.495 115.763 105.234 115.388C104.979 115.008 104.773 114.568 104.617 114.068C104.461 113.568 104.341 113.031 104.258 112.458V112.028C104.341 111.414 104.461 110.851 104.617 110.341C104.773 109.825 104.979 109.38 105.234 109.005C105.495 108.625 105.812 108.331 106.188 108.122C106.568 107.914 107.013 107.81 107.523 107.81C108.06 107.81 108.531 107.911 108.938 108.114C109.349 108.318 109.693 108.609 109.969 108.989C110.25 109.37 110.461 109.823 110.602 110.349C110.747 110.875 110.82 111.458 110.82 112.099ZM108.562 112.263V112.099C108.562 111.739 108.531 111.409 108.469 111.107C108.411 110.799 108.318 110.531 108.188 110.302C108.062 110.073 107.896 109.896 107.688 109.771C107.484 109.64 107.237 109.575 106.945 109.575C106.638 109.575 106.375 109.625 106.156 109.724C105.943 109.823 105.768 109.966 105.633 110.153C105.497 110.341 105.396 110.565 105.328 110.825C105.26 111.086 105.219 111.38 105.203 111.708V112.794C105.229 113.179 105.302 113.526 105.422 113.833C105.542 114.135 105.727 114.375 105.977 114.552C106.227 114.729 106.555 114.818 106.961 114.818C107.258 114.818 107.508 114.752 107.711 114.622C107.914 114.487 108.078 114.302 108.203 114.068C108.333 113.833 108.424 113.562 108.477 113.255C108.534 112.948 108.562 112.617 108.562 112.263Z" fill="black"/>
<path d="M116.789 114.083C116.789 113.922 116.742 113.776 116.648 113.646C116.555 113.515 116.38 113.396 116.125 113.286C115.875 113.172 115.513 113.068 115.039 112.974C114.612 112.88 114.214 112.763 113.844 112.622C113.479 112.476 113.161 112.302 112.891 112.099C112.625 111.896 112.417 111.656 112.266 111.38C112.115 111.099 112.039 110.778 112.039 110.419C112.039 110.065 112.115 109.732 112.266 109.419C112.422 109.107 112.643 108.831 112.93 108.591C113.221 108.346 113.576 108.156 113.992 108.021C114.414 107.88 114.888 107.81 115.414 107.81C116.148 107.81 116.779 107.927 117.305 108.161C117.836 108.396 118.242 108.719 118.523 109.13C118.81 109.536 118.953 110 118.953 110.521H116.703C116.703 110.302 116.656 110.107 116.562 109.935C116.474 109.758 116.333 109.62 116.141 109.521C115.953 109.416 115.708 109.364 115.406 109.364C115.156 109.364 114.94 109.409 114.758 109.497C114.576 109.581 114.435 109.695 114.336 109.841C114.242 109.982 114.195 110.138 114.195 110.31C114.195 110.44 114.221 110.557 114.273 110.661C114.331 110.76 114.422 110.851 114.547 110.935C114.672 111.018 114.833 111.096 115.031 111.169C115.234 111.237 115.484 111.299 115.781 111.357C116.391 111.482 116.935 111.646 117.414 111.849C117.893 112.047 118.273 112.318 118.555 112.661C118.836 113 118.977 113.445 118.977 113.997C118.977 114.372 118.893 114.716 118.727 115.028C118.56 115.341 118.32 115.614 118.008 115.849C117.695 116.078 117.32 116.258 116.883 116.388C116.451 116.513 115.964 116.575 115.422 116.575C114.635 116.575 113.969 116.435 113.422 116.153C112.88 115.872 112.469 115.515 112.188 115.083C111.911 114.646 111.773 114.198 111.773 113.739H113.906C113.917 114.047 113.995 114.294 114.141 114.482C114.292 114.669 114.482 114.804 114.711 114.888C114.945 114.971 115.198 115.013 115.469 115.013C115.76 115.013 116.003 114.974 116.195 114.896C116.388 114.812 116.534 114.703 116.633 114.568C116.737 114.427 116.789 114.265 116.789 114.083Z" fill="black"/>
</svg>
