<svg width="203" height="141" viewBox="0 0 203 141" fill="none" xmlns="http://www.w3.org/2000/svg">
<g clip-path="url(#clip0_2_7)">
<path d="M45.7614 127.199C45.7614 107.869 61.4314 92.1992 80.7614 92.1992H122.239C141.569 92.1992 157.239 107.869 157.239 127.199V140.813H45.7614V127.199Z" fill="black"/>
<path d="M101.919 96.1992C126.387 96.1992 146.151 76.1688 146.151 51.5477C146.151 26.9266 126.387 6.89624 101.919 6.89624C77.4512 6.89624 57.6866 26.9266 57.6866 51.5477C57.6866 76.1688 77.4512 96.1992 101.919 96.1992Z" fill="black" stroke="white" stroke-width="8"/>
<path d="M111.257 93.1435C119.386 91.2821 126.786 87.0333 132.527 80.9351C138.267 74.8372 142.092 67.1623 143.523 58.8774" stroke="#D23900" stroke-width="4"/>
<path d="M144.647 63.0944C146.4 56.4841 146.624 49.5558 145.303 42.8444C143.982 36.1329 141.15 29.8155 137.023 24.3815C132.896 18.9473 127.585 14.5417 121.497 11.5084C115.41 8.47496 108.711 6.89624 101.919 6.89624C95.1274 6.89624 88.4284 8.47496 82.3407 11.5084C76.2532 14.5417 70.9418 18.9473 66.815 24.3815C62.6883 29.8155 59.8563 36.1329 58.535 42.8444C57.2138 49.5558 57.4382 56.4841 59.1912 63.0944" stroke="#D23900" stroke-width="8"/>
<rect x="134.608" y="36.8797" width="17.6017" height="36.0415" rx="7" fill="#D23900"/>
<rect x="50.7904" y="36.8797" width="17.6016" height="36.0415" rx="7" fill="#D23900"/>
<path d="M87.6701 66.2157C87.6701 69.9947 89.1713 73.619 91.8435 76.2912C94.5157 78.9634 98.14 80.4647 101.919 80.4647C105.698 80.4647 109.322 78.9634 111.995 76.2912C114.667 73.619 116.168 69.9948 116.168 66.2157L101.919 66.2157L87.6701 66.2157Z" fill="white"/>
</g>
<defs>
<clipPath id="clip0_2_7">
<rect width="202" height="140.813" fill="white" transform="translate(0.5)"/>
</clipPath>
</defs>
</svg>
